<svg id="图层_1" data-name="图层 1" xmlns="http://www.w3.org/2000/svg" viewBox="0 0 502.07 142.2"><defs><style>.cls-1,.cls-3,.cls-4{fill:none;stroke:#34385d;stroke-miterlimit:10;}.cls-1{stroke-width:8px;}.cls-2{fill:#34385d;}.cls-3,.cls-4{stroke-linecap:round;stroke-width:3px;}.cls-3{stroke-dasharray:0 9.21;}.cls-4{stroke-dasharray:0 10.14;}.cls-5{fill:#fff;}.cls-6{font-size:227.1px;fill:#33385d;font-family:HelveticaNeue-Bold, Helvetica Neue;font-weight:700;letter-spacing:0.06em;}.cls-7{letter-spacing:0.06em;}.cls-8{letter-spacing:0.07em;}.cls-9{letter-spacing:0.08em;}.cls-10{letter-spacing:0.07em;}</style></defs><circle class="cls-1" cx="55.08" cy="65.68" r="51.08"/><circle class="cls-2" cx="55.08" cy="65.68" r="18.31"/><circle class="cls-3" cx="55.08" cy="65.68" r="27.84"/><circle class="cls-4" cx="55.08" cy="65.68" r="33.89"/><path class="cls-5" d="M123.13,55.15a4.21,4.21,0,0,1-.93.73l-5.28-5.28a4.21,4.21,0,0,1,.73-.93,1.46,1.46,0,1,0-2.07-2.07c-2.36,2.37-2.4,5.23-2,7.81-3-.62-6.33-.88-9,1.77a7.18,7.18,0,0,0-2.11,4.31.45.45,0,0,0,.39.51.46.46,0,0,0,.51-.4,6.32,6.32,0,0,1,1.85-3.78c2.44-2.44,5.53-2.09,8.51-1.44.09.44.17.79.26,1.18-3-.68-5.83-1.15-8,1-4.84,4.85,3.38,13.11-2,18.52a.55.55,0,0,1-.78-.78c3.43-3.43.37-8.35.13-13.07a.46.46,0,0,0-.48-.43.45.45,0,0,0-.43.48,18,18,0,0,0,.4,2.84c-2.59-.41-5.45-.38-7.81,2a1.46,1.46,0,1,0,2.06,2.06,4.73,4.73,0,0,1,.93-.73l5.29,5.29a4.73,4.73,0,0,1-.73.93,1.46,1.46,0,0,0,2.06,2.06c2.37-2.36,2.4-5.22,2-7.81,3.43.71,6.49.72,9-1.77,2.65-2.65,2.39-6,1.77-9a13.34,13.34,0,0,0,2.6.19.44.44,0,0,0,.44-.47.46.46,0,0,0-.47-.44,13.2,13.2,0,0,1-2.78-.24l-.27-1.16c2.52.51,4.93.66,6.87-1.28a.54.54,0,0,1,.77.77,6.17,6.17,0,0,1-2.94,1.69.45.45,0,0,0,.23.88,7,7,0,0,0,3.36-1.92,1.49,1.49,0,0,0,.42-1A1.46,1.46,0,0,0,123.13,55.15ZM96.46,69.57a.55.55,0,1,1-.78-.78,6.62,6.62,0,0,1,4.92-1.91,14.34,14.34,0,0,1,2.46.24c.08.38.17.76.26,1.16C100.8,67.78,98.4,67.63,96.46,69.57Zm2.47-.48a9.3,9.3,0,0,1,4.61.17,9.3,9.3,0,0,1,.17,4.61Zm7-2.27a18.42,18.42,0,0,1-.64-4.16l4.8,4.8A18.42,18.42,0,0,1,106,66.82Zm5.32.52-5.84-5.84a4.31,4.31,0,0,1,.91-1.92l6.85,6.85A4.31,4.31,0,0,1,111.3,67.34Zm2.56-1.55L107,58.94a4.38,4.38,0,0,1,1.92-.92l5.85,5.85A4.38,4.38,0,0,1,113.86,65.79Zm.4-7.25a19.09,19.09,0,0,1,.64,4.16l-4.8-4.8A19.09,19.09,0,0,1,114.26,58.54Zm.72,9c-2.45,2.44-5.54,2.09-8.52,1.45-.06-.32-.13-.65-.25-1.18,3,.68,5.81,1.14,8-1,4.8-4.8-3.35-13.14,2-18.51A.54.54,0,1,1,117,49C112.17,53.85,120.38,62.14,115,67.54Zm1.71-11.43a9.46,9.46,0,0,1-.17-4.62l4.79,4.79A9.46,9.46,0,0,1,116.69,56.11Z" transform="translate(-54.56 3.02)"/><text class="cls-6" transform="translate(124.1 113.47) scale(0.58)">I<tspan class="cls-7" x="80.85" y="0">R</tspan><tspan class="cls-8" x="258.26" y="0">I</tspan><tspan class="cls-9" x="340.21" y="0">S</tspan><tspan class="cls-10" x="505.02" y="0">3</tspan></text></svg>