<svg id="图层_1" data-name="图层 1" xmlns="http://www.w3.org/2000/svg" viewBox="0 0 532.22 142.2"><defs><style>.cls-1{font-size:227.1px;font-family:HelveticaNeue-Bold, Helvetica Neue;font-weight:700;letter-spacing:0.06em;}.cls-1,.cls-6,.cls-7{fill:#30588c;}.cls-2{letter-spacing:0.06em;}.cls-3{letter-spacing:0.07em;}.cls-4{letter-spacing:0.08em;}.cls-5{letter-spacing:0.07em;}.cls-6{stroke:#30588c;stroke-width:3px;}.cls-6,.cls-7{stroke-miterlimit:10;}.cls-7{stroke:#fff;stroke-width:2px;}.cls-8{fill:#752eff;}.cls-9{fill:#fff;}</style></defs><text class="cls-1" transform="translate(154.25 113.47) scale(0.58)">I<tspan class="cls-2" x="80.85" y="0">R</tspan><tspan class="cls-3" x="258.26" y="0">I</tspan><tspan class="cls-4" x="340.21" y="0">S</tspan><tspan class="cls-5" x="505.02" y="0">3</tspan></text><path class="cls-6" d="M26.15,54.69a2.37,2.37,0,0,0,0,2.11c13.26,26.54,39.93,43.25,69.06,43.25S151,83.34,164.27,56.8a2.37,2.37,0,0,0,0-2.11C151,28.15,124.34,11.44,95.21,11.44S39.41,28.15,26.15,54.69ZM95.21,16.07a72.81,72.81,0,0,1,64.51,39.67,72.26,72.26,0,0,1-129,0A72.78,72.78,0,0,1,95.21,16.07Z" transform="translate(-24.4 3.02)"/><path class="cls-7" d="M128.34,80.3H124l-1.51-1.51a35.33,35.33,0,0,0,8.63-23.21,35.76,35.76,0,1,0-12.5,27.11l1.51,1.51v4.35L147.57,116l8.19-8.19Zm-33,0A24.73,24.73,0,1,1,120.1,55.58,24.73,24.73,0,0,1,95.37,80.3Z" transform="translate(-24.4 3.02)"/><circle class="cls-8" cx="70.82" cy="58.77" r="18.6"/><path class="cls-9" d="M105.13,50.89a3,3,0,0,1-.67.53l-3.8-3.8a3.62,3.62,0,0,1,.53-.67,1,1,0,0,0-1.48-1.48c-1.7,1.7-1.73,3.75-1.43,5.61-2.16-.45-4.55-.63-6.45,1.27a5.17,5.17,0,0,0-1.52,3.1.33.33,0,0,0,.29.36.32.32,0,0,0,.36-.28,4.54,4.54,0,0,1,1.33-2.72c1.76-1.75,4-1.5,6.12-1,.06.32.12.58.18.85-2.13-.48-4.19-.82-5.75.75-3.47,3.48,2.43,9.42-1.45,13.31a.4.4,0,0,1-.56-.56c2.47-2.46.26-6,.09-9.39a.33.33,0,0,0-.65,0,11.93,11.93,0,0,0,.29,2c-1.86-.29-3.91-.27-5.61,1.43a1,1,0,1,0,1.48,1.48,3.27,3.27,0,0,1,.67-.52L90.89,65a3.47,3.47,0,0,1-.52.67,1,1,0,1,0,1.48,1.48,6,6,0,0,0,1.43-5.61c2.46.51,4.67.51,6.45-1.27S101.45,56,101,53.8a9.82,9.82,0,0,0,1.87.14.33.33,0,1,0,0-.65,9.47,9.47,0,0,1-2-.18l-.19-.83c1.81.36,3.54.47,4.93-.92a.39.39,0,0,1,.56,0,.38.38,0,0,1,0,.55A4.52,4.52,0,0,1,104,53.13a.33.33,0,1,0,.16.63,5.06,5.06,0,0,0,2.41-1.38,1.05,1.05,0,0,0-1.48-1.49ZM86,61.25a.38.38,0,0,1-.55,0,.39.39,0,0,1,0-.56,4.78,4.78,0,0,1,3.53-1.37,10.41,10.41,0,0,1,1.77.17c.06.28.12.55.19.84C89.09,60,87.36,59.86,86,61.25Zm1.78-.34a6.68,6.68,0,0,1,3.32.12,6.8,6.8,0,0,1,.12,3.32Zm5.07-1.63a13.21,13.21,0,0,1-.46-3l3.44,3.45A13.13,13.13,0,0,1,92.81,59.28Zm3.82.37-4.2-4.2a3.21,3.21,0,0,1,.66-1.38L98,59A3.13,3.13,0,0,1,96.63,59.65Zm1.84-1.12-4.92-4.92A3.13,3.13,0,0,1,94.93,53l4.2,4.2A3.17,3.17,0,0,1,98.47,58.53Zm.28-5.2a13.21,13.21,0,0,1,.46,3l-3.44-3.45A13.13,13.13,0,0,1,98.75,53.33Zm.52,6.46c-1.76,1.76-4,1.51-6.12,1,0-.23-.09-.46-.18-.84,2.16.49,4.18.81,5.74-.75,3.46-3.46-2.4-9.45,1.46-13.31a.4.4,0,0,1,.56.56C97.26,50,103.15,55.91,99.27,59.79Zm1.23-8.21a6.8,6.8,0,0,1-.12-3.32l3.44,3.44A6.8,6.8,0,0,1,100.5,51.58Z" transform="translate(-24.4 3.02)"/></svg>